<?xml version="1.0" encoding="UTF-8" standalone="no"?>
<svg
   xmlns:dc="http://purl.org/dc/elements/1.1/"
   xmlns:cc="http://creativecommons.org/ns#"
   xmlns:rdf="http://www.w3.org/1999/02/22-rdf-syntax-ns#"
   xmlns:svg="http://www.w3.org/2000/svg"
   xmlns="http://www.w3.org/2000/svg"
   viewBox="0 0 254.42027 282.22009"
   height="282.22009"
   width="254.42027"
   id="svg2"
   version="1.1">
  <metadata
     id="metadata8">
    <rdf:RDF>
      <cc:Work
         rdf:about="">
        <dc:format>image/svg+xml</dc:format>
        <dc:type
           rdf:resource="http://purl.org/dc/dcmitype/StillImage" />
        <dc:title></dc:title>
      </cc:Work>
    </rdf:RDF>
  </metadata>
  <defs
     id="defs6" />
  <path
     id="path817"
     d="m 110.5944,281.69106 c -7.975,-0.46468 -16.072764,-1.21505 -17.995034,-1.66749 -1.92226,-0.45244 -6.64726,-0.42582 -10.5,0.0591 -10.07384,1.26806 -51.434795,0.10146 -60.180395,-1.69741 -7.51231,-1.54516 -13.3245697,-3.99098 -13.3245697,-5.60698 0,-0.52319 1.2375,-1.7087 2.7499997,-2.63446 1.5125,-0.92576 4.325,-2.69875 6.25,-3.93997 1.925,-1.24122 6.66531,-3.18427 10.53402,-4.31788 5.13249,-1.50392 8.46616,-3.28356 12.33166,-6.58308 5.13336,-4.38176 5.5044,-4.52191 11.96597,-4.51984 5.49045,0.002 7.68403,0.53753 12.418345,3.03309 5.26372,2.7746 6.94074,2.90663 5,0.39361 -0.4125,-0.53413 0.0375,-0.12428 1,0.91079 1.69935,1.82747 1.75203,1.82808 1.82029,0.0212 0.0649,-1.71886 0.13583,-1.70824 0.92971,0.13922 0.98889,2.30127 1.26368,1.57316 1.50962,-4 0.78639,-17.82038 1.78821,-43.27731 1.75123,-44.5 -0.16938,-5.59956 -2.37517,-22.26141 -3.14039,-23.72143 -0.51269,-0.97821 -1.42587,-4.18119 -2.02928,-7.11772 -0.60341,-2.93653 -2.44578,-8.41196 -4.09415,-12.16761 -1.64837,-3.75571 -2.99703,-7.31559 -2.99703,-7.9109 0,-1.73439 -1.878565,-1.2497 -3.169755,0.81783 -0.68199,1.09205 -1.8227,1.65617 -2.68208,1.32639 -1.02111,-0.39183 -1.31678,-0.1084 -0.93224,0.89368 0.30972,0.80713 -0.19062,3.02276 -1.11188,4.92361 -0.92126,1.90086 -2.30444,6.08953 -3.07373,9.30817 -0.76929,3.21864 -1.92897,6.05555 -2.57706,6.30424 -0.74662,0.28651 -1.00883,1.91965 -0.71568,4.45751 0.62575,5.41725 -0.49547,10.88618 -2.23186,10.88618 -1.20054,0 -1.20365,0.47867 -0.0215,3.30792 0.8483,2.03026 1.35669,6.75464 1.31626,12.23164 l -0.0659,8.92371 -3.92413,-4.48163 c -4.47101,-5.10622 -7.02309,-9.43566 -6.10389,-10.35486 0.34473,-0.34473 0.15134,-0.62678 -0.42976,-0.62678 -1.44435,0 -5.52742,-8.90449 -4.86938,-10.61931 0.2914,-0.75938 0.16116,-1.38069 -0.28943,-1.38069 -0.45059,0 -1.60282,-3.32731 -2.56051,-7.39403 -1.34333,-5.70426 -1.48369,-7.87531 -0.61419,-9.5 0.74526,-1.39251 0.77639,-2.10597 0.0919,-2.10597 -1.22688,0 -1.28743,-6.74448 -0.115,-12.80965 0.69318,-3.58592 0.58817,-4.21566 -0.62533,-3.75 -0.80214,0.30781 -1.79057,0.55965 -2.19653,0.55965 -0.40596,0 -2.24611,1.34635 -4.08923,2.99188 -1.84311,1.64553 -4.62416,3.55538 -6.18011,4.24411 -1.55594,0.68873 -2.82898,1.74764 -2.82898,2.35313 0,0.6055 -0.92361,1.93676 -2.05246,2.95835 -1.12885,1.0216 -3.8897297,4.57884 -6.1352897,7.90499 l -4.08283,6.04754 0.58625,-8.74493 c 0.36113,-5.38682 1.34495,-10.46009 2.56198,-13.21139 2.8368,-6.41305 12.4603297,-15.90051 19.3015797,-19.02867 6.1315,-2.80363 15.89753,-4.80652 18.52332,-3.79891 1.08527,0.41646 1.38522,0.23493 0.90248,-0.54616 -0.39769,-0.64347 -1.63864,-1.16994 -2.75767,-1.16994 -1.1743,0 -2.24963,-0.82227 -2.54314,-1.94467 -0.41354,-1.58135 -0.83837,-1.7387 -2.27392,-0.84218 -1.02736,0.6416 -2.55233,0.76533 -3.64784,0.29598 -1.03535,-0.44357 -2.87039,-0.71061 -4.07785,-0.59341 -1.20747,0.11721 -3.01909,-0.22773 -4.02583,-0.76652 -1.11643,-0.59749 -2.4625,-0.62589 -3.45083,-0.0728 -1.17235,0.65608 -1.82542,0.42525 -2.36183,-0.83479 -0.63735,-1.49717 -0.83157,-1.3997 -1.38376,0.69445 -0.74521,2.82619 -5.97791,4.82781 -7.27681,2.78355 -0.5369697,-0.84512 -0.7796297,-0.68226 -0.7902397,0.53038 -0.0175,2.00011 -2.59277,2.38413 -3.35303,0.5 -0.32789,-0.81258 -0.53201,-0.69379 -0.58333,0.33948 -0.0632,1.27148 -3.8128,3.91053 -5.55619999,3.91053 -0.57585,0 1.08503999,-5.38908 2.49965999,-8.11061 2.20164,-4.23566 8.1554897,-10.99689 9.3338097,-10.59955 0.62908,0.21214 1.59378,-0.20593 2.14378,-0.92904 0.55,-0.72311 2.575,-1.4376 4.5,-1.58777 1.925,-0.15017 3.78104,-0.65824 4.12454,-1.12905 0.3435,-0.47082 3.46538,-1.05152 6.93751,-1.29045 7.80307,-0.53697 18.601,2.45846 22.07878,6.12482 2.96487,3.12564 4.82252,3.24568 4.20397,0.27165 -1.23111,-5.91921 -2.85158,-11.47644 -3.98855,-13.6783 -0.68964,-1.33556 -0.99427,-2.84838 -0.67696,-3.3618 0.31732,-0.51343 0.14724,-1.2207 -0.37796,-1.5717 -1.15216,-0.77004 -4.7004,-15.072456 -3.93032,-15.842536 0.81518,-0.81518 8.74141,3.51741 11.90861,6.50942 5.133945,4.849956 11.653105,19.949406 11.741355,27.194916 0.0392,3.21829 0.15544,3.35109 1.44429,1.64986 0.81417,-1.07468 1.90945,-1.5363 2.61318,-1.10137 1.33519,0.82519 1.22057,0.0155 -1.4223,-10.04849 -0.86661,-3.3 -1.84251,-8.46124 -2.16866,-11.46943 -0.32616,-3.008176 -0.75314,-5.629546 -0.94886,-5.825266 -0.19571,-0.19571 0.0995,-1.78447 0.65595,-3.53057 0.55648,-1.7461 0.96393,-4.2654 0.90543,-5.59844 -0.0585,-1.33305 1.35757,-6.020631 3.14681,-10.416856 2.51756,-6.185692 4.10149,-8.609455 7.00471,-10.718708 2.7819,-2.021112 3.36345,-2.874495 2.25,-3.301763 -0.82584,-0.316906 -1.50153,-0.202996 -1.50153,0.253132 0,0.456128 -2.32859,1.105111 -5.17465,1.442185 -2.84605,0.337073 -5.43355,0.997885 -5.75,1.468472 -0.31644,0.470586 -3.02906,2.16998 -6.02805,3.77643 -2.998975,1.606451 -6.310835,3.675254 -7.359685,4.597341 -1.04885,0.922088 -2.60645,1.408115 -3.46135,1.080062 -1.07438,-0.412278 -1.31385,-0.207318 -0.7755,0.663744 0.87587,1.417183 -6.00518,9.079671 -8.15371,9.079671 -0.71338,0 -1.29705,0.74502 -1.29705,1.65561 0,0.91058 -1.125,3.13056 -2.5,4.93328 -1.375,1.80272 -2.5,3.67925 -2.5,4.17007 0,0.49083 -1.08882,1.9153 -2.4196,3.1655 -1.33077,1.2502 -2.96037,3.578636 -3.62132,5.174316 -1.54496,3.72986 -2.39749,3.65712 -4.08776,-0.34878 -1.94272,-4.604196 -1.72014,-15.467476 0.40268,-19.653636 0.9493,-1.871998 1.73715,-4.121998 1.75079,-4.999997 0.0415,-2.674199 6.8014,-11.014636 9.47018,-11.684457 1.37777,-0.345796 2.50503,-1.211981 2.50503,-1.924855 0,-1.591204 10.71228,-7.782904 12.04268,-6.960671 0.52653,0.32541 0.95732,0.08979 0.95732,-0.523592 0,-1.366979 8.395255,-5.187751 12.026535,-5.473409 1.45447,-0.114417 3.05601,-0.458049 3.55898,-0.763627 0.50296,-0.305579 3.54903,-0.139261 6.76904,0.369595 4.95552,0.783116 8.13717,1.846709 14.06253,4.700953 1.21624,0.585858 -2.58122,-4.708561 -5.62988,-7.849201 -1.32785,-1.367904 -3.92446,-4.624598 -5.77026,-7.237098 -1.84579,-2.6125 -3.76003,-4.75 -4.25386,-4.75 -0.49382,0 -0.59996,-0.938622 -0.23585,-2.085827 0.58534,-1.844244 0.42703,-1.960065 -1.36687,-1 -1.11589,0.597205 -2.26781,1.085827 -2.55983,1.085827 -1.29208,0 -7.53815,-6.291926 -7.04239,-7.094085 0.30341,-0.49093 -0.49009,-0.806382 -1.76334,-0.701005 -2.152975,0.178186 -8.794805,-2.971382 -8.794805,-4.170518 0,-0.293915 -1.0125,-0.607823 -2.25,-0.697571 -1.2375,-0.08975 -4.725,-0.540857 -7.75,-1.002463 l -5.5,-0.839283 3.55383,-2.716598 c 1.9546,-1.494129 5.23309,-3.418241 7.28553,-4.275805 4.8372,-2.021109 15.823145,-2.496709 16.421965,-0.710934 0.28286,0.843519 0.83315,0.964946 1.58592,0.349946 1.8625,-1.521652 8.98824,2.477567 12.23503,6.866731 1.60475,2.169371 3.4389,3.954947 4.0759,3.967947 0.63699,0.013 2.43699,2.047833 4,4.52185 1.563,2.474016 3.12007,4.499016 3.46015,4.5 0.34008,9.83e-4 0.87273,-1.894923 1.18367,-4.213126 0.31094,-2.318202 1.15769,-4.68233 1.88167,-5.253617 0.72398,-0.571287 1.45637,-1.712075 1.62753,-2.535086 0.6855,-3.296161 5.191594,-8.932543 6.683554,-8.360023 0.94364,0.362108 1.50525,-0.004 1.50525,-0.981331 0,-1.6974623 7.08324,-6.9611393 12.26105,-9.1114003 3.60317,-1.49633705 17.90256,-3.15020305 16.08975,-1.86093905 -0.63207,0.44952 -3.15413,3.51731005 -5.60459,6.81731005 -2.45046,3.3000003 -5.59557,7.2064683 -6.98913,8.6810393 -1.39357,1.474572 -4.04651,4.849572 -5.89542,7.5 -1.84891,2.650429 -3.61267,5.043961 -3.91947,5.318961 -0.71041,0.636784 -4.86166,13.402861 -4.48338,13.787441 0.46165,0.469332 5.90331,-2.059201 7.75594,-3.603891 0.94312,-0.78635 4.09312,-1.996831 7,-2.689958 2.90689,-0.693127 5.73525,-1.405998 6.28525,-1.584158 3.78695,-1.226698 17.13559,3.810994 20.77707,7.841137 1.74404,1.930181 1.66892,1.97655 -4.0414,2.494343 -3.20017,0.290181 -7.59318,1.478785 -9.76227,2.641344 -2.16908,1.162558 -4.96295,2.113742 -6.20859,2.113742 -1.24565,0 -2.26481,0.405551 -2.26481,0.901224 0,1.297769 -6.9784,5.230158 -8.07677,4.551329 -0.50778,-0.313823 -0.92323,-0.07245 -0.92323,0.536396 0,0.608841 -1.2375,2.181845 -2.75,3.495566 -2.70396,2.348592 -2.7167,2.413273 -0.76103,3.863358 1.09394,0.811127 2.29364,1.286484 2.666,1.05635 0.88046,-0.544151 7.84503,7.587052 7.84503,9.159144 0,0.661854 0.83841,1.42262 1.86314,1.690591 1.02472,0.267972 3.04854,2.907956 4.49738,5.866632 2.09822,4.284799 3.66638,5.958699 7.70662,8.226309 2.78982,1.5658 5.23816,2.68113 5.44078,2.47852 0.47726,-0.47727 -2.6545,-10.01783 -3.71767,-11.325419 -0.44719,-0.55 -2.27044,-2.878393 -4.05166,-5.174206 -1.78122,-2.295813 -5.37609,-6.874133 -7.98859,-10.174044 -2.6125,-3.29991 -4.75,-6.203741 -4.75,-6.452956 0,-1.240563 10.11345,0.841165 14.5,2.984643 4.96913,2.428158 13.5,10.233348 13.5,12.351625 0,0.609287 0.675,1.782795 1.5,2.607795 0.825,0.825 1.5,2.817857 1.5,4.428572 0,1.610714 0.45,2.92857 1,2.92857 0.55,0 1,-0.418204 1,-0.929343 0,-1.365518 11.11093,-12.640387 13.82814,-14.032167 1.28048,-0.655873 2.9389,-0.958124 3.68539,-0.671669 0.74649,0.286454 1.51992,0.03283 1.71873,-0.5636 0.56757,-1.702697 10.70925,-0.04206 15.19606,2.488259 5.52799,3.117488 5.47459,4.323003 -0.22139,4.997608 -2.67525,0.316843 -6.53544,1.562201 -8.5782,2.767464 -2.04277,1.205262 -3.9623,1.943215 -4.26562,1.639896 -0.30332,-0.30332 -1.90027,0.984693 -3.54879,2.86225 -2.57207,2.929422 -3.28958,3.257322 -5.05744,2.311192 -1.7121,-0.91629 -1.95954,-0.84041 -1.46469,0.44917 0.3275,0.85345 0.23255,1.6933 -0.21101,1.86633 -0.95461,0.3724 -12.99797,15.198416 -12.64685,15.568946 0.13255,0.13988 1.77656,-0.52368 3.65334,-1.47459 4.98773,-2.527126 15.22346,-2.678056 20.59127,-0.30362 2.37658,1.05127 4.32106,2.41327 4.32106,3.02666 0,0.61338 0.46346,0.82881 1.0299,0.47873 1.20241,-0.74313 9.9701,4.14689 9.9701,5.56063 0,0.52682 0.63607,0.95785 1.41349,0.95785 1.459,0 7.58651,7.6032 7.58651,9.41357 0,0.56076 0.74023,2.95782 1.64495,5.32681 1.46143,3.82669 1.82402,4.15068 3.25,2.90402 0.88278,-0.77177 3.06755,-2.14404 4.85505,-3.04949 2.9378,-1.48813 3.25,-1.49422 3.25,-0.0634 0,2.96508 -2.32069,10.96621 -3.38313,11.66413 -0.58242,0.38259 -0.77171,0.98286 -0.42065,1.33393 0.35107,0.35106 -0.22446,3.14598 -1.27896,6.21092 -2.98747,8.68325 -2.34189,11.59618 1.60377,7.23629 2.52464,-2.7897 11.10174,-5.09935 17.0466,-4.59033 6.52712,0.55888 12.81137,2.25057 13.25015,3.56689 0.19417,0.58252 0.71927,0.83279 1.16689,0.55615 1.88574,-1.16546 11.25344,12.58574 9.65956,14.17963 -0.26012,0.26011 -1.52398,-0.11008 -2.80858,-0.82265 -1.28461,-0.71258 -2.67315,-1.36779 -3.08565,-1.45602 -0.4125,-0.0882 -1.0875,-0.2686 -1.5,-0.40079 -1.39797,-0.448 -2.7445,-0.70454 -4.5,-0.85734 -0.9625,-0.0838 -1.75,-0.79264 -1.75,-1.57527 0,-1.13207 -1.17544,-1.3058 -5.75,-0.84989 -3.1625,0.31519 -6.875,0.61802 -8.25,0.67296 -1.375,0.0549 -2.85986,0.66239 -3.29969,1.34989 -0.43983,0.6875 -1.78983,1.29315 -3,1.34588 -1.21017,0.0527 0.72469,0.64491 4.29969,1.31593 8.95052,1.68001 12.90389,3.5975 18.37,8.90995 5.6172,5.4593 8.24462,11.01521 9.18771,19.42824 0.78559,7.00799 -0.18133,7.96126 -2.91898,2.87776 -1.9077,-3.54242 -10.36224,-12.62777 -11.75098,-12.62777 -0.44541,0 -1.61487,-0.82795 -2.59879,-1.8399 -4.36047,-4.48463 -4.78896,-3.69605 -4.78896,8.81349 0,8.46281 -0.38134,12.17845 -1.37244,13.37268 -0.75485,0.90955 -1.03725,1.65373 -0.62756,1.65373 0.40969,0 0.24369,0.6039 -0.36888,1.34201 -0.61257,0.7381 -0.88677,1.56901 -0.60932,1.84646 1.03745,1.03745 -4.78473,12.00112 -9.14491,17.22068 l -3.12312,3.73867 -0.089,-7.64807 c -0.049,-4.20643 0.42292,-8.46785 1.04865,-9.4698 0.90483,-1.44886 0.77716,-2.18228 -0.62374,-3.58318 -1.31492,-1.31492 -1.67629,-2.98917 -1.42553,-6.60472 0.18474,-2.66381 0.0165,-4.84301 -0.37396,-4.84267 -0.39042,3.4e-4 -1.23445,-1.91188 -1.87562,-4.24938 -0.64117,-2.3375 -1.80771,-5.71748 -2.59232,-7.51107 -0.7846,-1.7936 -1.15151,-3.7061 -0.81536,-4.25 0.33611,-0.54391 0.0575,-0.98893 -0.61913,-0.98893 -0.67665,0 -2.00862,-0.70439 -2.95992,-1.5653 -1.60148,-1.44932 -1.82073,-1.28261 -2.95906,2.25 -0.67618,2.09841 -1.59399,4.27913 -2.03957,4.84603 -0.44557,0.56689 -1.99946,5.50062 -3.45309,10.96384 -2.23875,8.41401 -2.68564,12.38557 -2.92211,25.96927 -0.15354,8.81989 -0.0592,19.98158 0.20974,24.80376 0.43164,7.74079 0.66895,8.61915 2.0263,7.5 1.34749,-1.11103 1.39365,-0.9978 0.37367,0.91666 -1.8438,3.46074 -1.42397,4.86124 0.84241,2.81019 1.10337,-0.99854 2.23113,-1.59052 2.50613,-1.31552 0.275,0.275 -0.40276,1.31698 -1.50613,2.31552 -1.10337,0.99854 -2.00613,2.28578 -2.00613,2.86054 0,0.64058 0.46442,0.58059 1.2,-0.15499 0.66,-0.66 1.65,-1.2 2.2,-1.2 0.55556,0 0.46667,0.53333 -0.2,1.2 -1.94291,1.94291 -1.37151,3.26519 0.62874,1.45499 1.00581,-0.91025 2.40566,-1.65499 3.11078,-1.65499 0.70513,0 0.27503,0.81543 -0.95577,1.81207 -1.69592,1.37328 -2.05951,2.37388 -1.50146,4.13213 0.57125,1.79986 0.93263,2.01016 1.61172,0.93793 0.48145,-0.76017 0.88226,-0.97489 0.89068,-0.47714 0.008,0.49774 1.02781,0.0597 2.26531,-0.97347 1.2375,-1.03315 1.6875,-1.23789 1,-0.45499 -2.02559,2.30669 -1.55224,2.7038 4.68575,3.93105 3.26467,0.64228 6.97717,2.0218 8.25,3.06559 2.09048,1.7143 2.16485,2.04999 0.76919,3.47167 -4.07859,4.1546 -33.85535,6.02538 -54.25798,3.40885 -6.66156,-0.85432 -11.39137,-0.86026 -18.56772,-0.0233 -15.55877,1.81451 -20.8209,1.97177 -36.12924,1.0798 z m 68.41826,-22.91015 c 0.86996,0 1.6087,-0.1125 1.64166,-0.25 0.033,-0.1375 0.28004,-6.1 0.54908,-13.25 0.49871,-13.25401 2.4219,-29.22718 4.81605,-40 0.7334,-3.3 1.32753,-6.675 1.3203,-7.5 -0.012,-1.36987 3.50768,-11.09643 6.69815,-18.51017 1.09354,-2.54108 1.06554,-3.22489 -0.17968,-4.3881 -1.14329,-1.06799 -1.64528,-1.10255 -2.23174,-0.15364 -0.41616,0.67336 -1.60612,1.09772 -2.64436,0.94302 -1.03825,-0.15469 -3.73457,0.68217 -5.99183,1.85971 -3.08442,1.60904 -4.3888,1.85627 -5.25,0.99507 -0.86119,-0.86119 -1.14589,-0.831 -1.14589,0.1215 0,0.81231 -0.71813,1.03946 -2,0.63261 -1.1,-0.34913 -2.00307,-0.26695 -2.00683,0.18261 -0.0113,1.34954 -6.80686,5.55057 -7.89288,4.87938 -1.07058,-0.66167 -2.73128,0.50172 -10.02837,7.0253 -2.51455,2.248 -5.38794,4.38232 -6.3853,4.74293 -0.99736,0.36061 -1.50708,1.15127 -1.13271,1.75702 0.37438,0.60574 0.87954,4.32142 1.12258,8.25706 0.70923,11.48466 0.88609,12.87477 2.56951,20.19719 0.87987,3.82718 2.61145,11.45851 3.84796,16.95851 2.5891,11.51636 2.85175,12.19376 4.01573,10.35676 0.6512,-1.02773 0.8634,-0.88602 0.875,0.58437 0.0152,1.92151 0.0313,1.92151 1.59695,0 1.64037,-2.01323 1.5912,-1.351 -0.23638,3.18331 -0.56759,1.40821 -0.26808,1.38016 2.25,-0.21075 2.86907,-1.81266 2.88512,-1.81112 1.30684,0.12556 -3.10262,3.80718 -3.3683,4.78062 -0.95177,3.48733 l 2.19168,-1.17295 -1.821,2.82174 -1.82101,2.82173 2.88486,-2.24855 c 1.58667,-1.2367 3.61167,-2.23053 4.5,-2.20851 1.01391,0.0251 0.59147,0.59538 -1.13486,1.53193 -1.5125,0.82055 -2.75,1.9134 -2.75,2.42857 0,0.51516 2.66322,-0.62421 5.91826,-2.53194 3.25505,-1.90773 6.63005,-3.4686 7.5,-3.4686 z m -39.92124,-13.75 c -0.39905,-2.0625 -0.85891,-8.475 -1.0219,-14.25 -0.163,-5.775 -0.61703,-11.30653 -1.00896,-12.2923 -0.39193,-0.98576 -0.41665,-4.02326 -0.0549,-6.75 0.37656,-2.83859 0.26303,-4.9577 -0.26558,-4.9577 -0.51688,0 -0.91105,-5.5385 -0.89554,-12.58331 0.0247,-11.23377 -0.18487,-12.7959 -1.95445,-14.56548 -1.09019,-1.09019 -2.6152,-2.07574 -3.38891,-2.19011 -0.77371,-0.11437 -3.58653,-2.38904 -6.25072,-5.05482 -6.62012,-6.62407 -7.73811,-5.46511 -6.65002,6.89372 0.61747,7.01333 0.50053,9.23264 -0.52977,10.0539 -0.95647,0.76243 -1.16843,2.74899 -0.76639,7.18276 0.30566,3.37087 0.18988,6.94662 -0.25728,7.9461 -0.44716,0.99948 -0.84608,6.09224 -0.88647,11.31724 -0.0404,5.225 -0.47107,13.82147 -0.95706,19.10327 l -0.8836,9.60326 6.36006,-0.86979 c 5.92576,-0.8104 6.73749,-0.67394 11.88729,1.99842 7.74318,4.01814 8.40494,3.96668 7.52424,-0.58516 z m -44.664934,-11.25 c 1.18269,-4.675 2.0989,-9.4 2.03602,-10.5 -0.0629,-1.1 1.03213,-6.15692 2.43334,-11.23761 1.401214,-5.08069 2.175484,-9.46763 1.720604,-9.74876 -0.45488,-0.28114 -0.19593,-2.60823 0.57545,-5.17132 1.63798,-5.4426 1.8007,-9.03912 0.43023,-9.50898 -0.58695,-0.20123 -0.40895,-1.96481 0.44915,-4.45002 1.68113,-4.86886 1.78409,-21.99257 0.14799,-24.61238 -0.70026,-1.12129 -1.77938,-1.53928 -2.985594,-1.15644 -1.07283,0.3405 -2.29998,0.0132 -2.84026,-0.75748 -0.68594,-0.9785 -1.08521,-1.03098 -1.43144,-0.18814 -0.58647,1.42767 -9.22299,-2.136 -11.08578,-4.57431 -1.11335,-1.45733 -1.22093,-1.45588 -1.25,0.0168 -0.0405,2.05314 -5.0318,1.3311 -5.0318,-0.72791 0,-1.85601 -0.6398,-1.74362 -2.8913,0.50788 -1.85321,1.85321 -1.85334,1.94886 -0.007,4.75 1.03659,1.57228 1.88768,3.60425 1.8913,4.51548 0.004,0.91123 1.40975,4.73623 3.12472,8.5 1.71498,3.76377 3.27214,8.41822 3.46037,10.34322 0.18822,1.925 1.2386,8 2.33416,13.5 2.62972,13.20182 5.292,31.72853 5.0604,35.21511 -0.43808,6.59514 0.0929,15.61041 0.86781,14.73489 0.46248,-0.5225 1.80852,-4.775 2.99122,-9.45 z m 58.121644,-59 c 1.44375,-1.375 3.70376,-3.175 5.02225,-4 1.3185,-0.825 3.37738,-2.5125 4.57531,-3.75 1.19793,-1.2375 2.91395,-2.25 3.81338,-2.25 0.89943,0 1.63533,-0.45 1.63533,-1 0,-0.55 1.2375,-1.00495 2.75,-1.01101 1.5125,-0.006 4.47218,-0.29556 6.57707,-0.64335 5.03982,-0.83272 2.8101,-2.30967 -3.51805,-2.33033 -2.58004,-0.008 -4.94608,-0.42806 -5.25786,-0.93253 -0.34187,-0.55315 -1.95834,-0.53302 -4.07245,0.0507 -1.92807,0.53237 -3.86851,0.74363 -4.3121,0.46948 -0.44358,-0.27415 -3.70003,0.94484 -7.23656,2.70886 l -6.43005,3.20731 0.19416,5.49043 c 0.10679,3.01974 0.21929,6.33303 0.25,7.36287 0.0617,2.06755 0.63604,1.74522 6.00957,-3.37244 z m -15.57328,-16.25 c 1.65934,-11.44794 2.90768,-20.66101 3.15031,-23.25 0.15463,-1.65 1.22346,-5.37916 2.37519,-8.28702 1.15173,-2.90786 2.09405,-6.42273 2.09405,-7.81082 0,-2.34161 -0.29374,-2.18441 -4.06914,2.17773 -6.49723,7.50696 -7.13011,8.76585 -5.95743,11.85023 0.56461,1.48504 0.97437,4.13328 0.91057,5.88498 -0.0638,1.75169 -0.31241,2.44614 -0.55246,1.54322 -0.54403,-2.04627 -8.33154,-4.29608 -8.33154,-2.40698 0,0.68128 -0.94168,2.09089 -2.09262,3.13248 -3.84171,3.4767 -4.33465,5.42861 -1.8164,7.19246 4.37542,3.06466 11.90902,10.59343 11.90902,11.90137 0,2.74615 1.92947,1.1837 2.38045,-1.92765 z m 52.86955,2.58772 c -0.6875,-0.27741 -1.8125,-0.27741 -2.5,0 -0.6875,0.27741 -0.125,0.50439 1.25,0.50439 1.375,0 1.9375,-0.22698 1.25,-0.50439 z m -38.81906,-9.52096 c 1.48955,-1.47578 5.09284,-3.67159 8.00732,-4.87958 l 5.29905,-2.19633 -1.60644,-4.12042 c -0.88354,-2.26624 -3.09247,-6.59543 -4.90873,-9.62043 -1.81625,-3.025 -3.55803,-6.5125 -3.87062,-7.75 -1.20308,-4.76289 -3.45454,-1.15345 -5.45798,8.75 -2.40046,11.86595 -2.77504,14.74758 -2.79479,21.5 -0.0194,6.64228 0.0471,6.84669 1.30173,4 0.7272,-1.65 2.54091,-4.20746 4.03046,-5.68324 z m 47.89472,-7.50186 c 0.29398,-1.20181 1.00149,-3.05767 1.57225,-4.12414 0.81565,-1.52406 0.61661,-2.32014 -0.93009,-3.71988 -1.0823,-0.97947 -1.96782,-2.24461 -1.96782,-2.81142 0,-0.56681 -0.86631,-1.95956 -1.92512,-3.09501 -1.05882,-1.13545 -2.07132,-2.71801 -2.25,-3.5168 -0.17869,-0.7988 -1.66832,-2.38731 -3.31031,-3.53002 -1.64199,-1.14271 -3.54785,-3.18915 -4.23526,-4.54765 -0.6874,-1.35849 -1.25646,-2.06274 -1.26457,-1.56499 -0.008,0.49774 -0.80224,0.2354 -1.76474,-0.58298 -5.52095,-4.69427 -19.54557,-10.85978 -21.12039,-9.28495 -0.23922,0.23921 0.78961,1.39816 2.28629,2.57544 3.00085,2.36047 7.4463,11.42499 8.28202,16.8875 0.50214,3.28212 0.50426,6.78451 0.009,14.88426 l -0.20693,3.38425 5.77799,0.26653 c 3.17789,0.14659 6.32789,0.69912 7,1.22785 0.6721,0.52874 2.37473,1.23568 3.78362,1.57099 1.40888,0.33531 3.88388,1.74944 5.5,3.14252 l 2.93839,2.53286 0.64558,-3.75463 c 0.35506,-2.06505 0.8861,-4.73793 1.18008,-5.93973 z m -79.31465,-1.5649 c 0.006,-1.2375 0.27912,-3.87091 0.60682,-5.85202 0.45695,-2.76244 0.2213,-3.74573 -1.011,-4.21861 -1.37372,-0.52715 -1.60683,0.32184 -1.60683,5.85201 0,3.64575 0.4364,6.46862 1,6.46862 0.55,0 1.00495,-1.0125 1.01101,-2.25 z m -14.01101,-7.81316 c 0,-1.80319 -0.52196,-1.95963 -5.25,-1.57356 -2.887504,0.23578 -6.150004,0.81155 -7.250004,1.27948 -1.65738,0.70505 -1.31475,0.94236 2,1.38531 8.976534,1.19953 10.500004,1.0412 10.500004,-1.09123 z m -22.730974,0.40722 c -0.67703,-0.27392 -2.02703,-0.29059 -3,-0.0371 -0.97297,0.25354 -0.41903,0.47766 1.23097,0.49804 1.65,0.0204 2.44606,-0.18706 1.76903,-0.46099 z m 4.73097,-0.34406 c 0,-0.55 -0.19844,-1 -0.44098,-1 -0.24254,0 -0.7191,0.45 -1.05902,1 -0.33992,0.55 -0.14148,1 0.44098,1 0.58246,0 1.05902,-0.45 1.05902,-1 z M 130.5944,114.89044 c 0,-0.43975 0.9,-1.61404 2,-2.60953 2.62195,-2.37283 2.52293,-3.6601 -0.5,-6.5 -1.375,-1.29175 -2.5,-2.99333 -2.5,-3.7813 0,-0.8336 -0.59986,-1.20249 -1.43456,-0.88219 -0.90465,0.34715 -2.16306,-0.68422 -3.40676,-2.792136 -1.58648,-2.68888 -2.91294,-3.54327 -6.78226,-4.36851 -2.64553,-0.56424 -5.1002,-0.84657 -5.45482,-0.6274 -0.82716,0.51121 -0.40503,6.14196 1.10509,14.740876 l 1.19232,6.78934 5.51633,2.78938 5.51632,2.78937 2.37417,-2.37417 c 1.30579,-1.30579 2.37417,-2.73397 2.37417,-3.17373 z m -48.000004,3.45005 c 0.825,-0.1003 2.62079,-0.79102 3.99064,-1.53494 1.36985,-0.74392 5.30623,-1.39129 8.7475,-1.43861 3.44128,-0.0473 6.257994,-0.42353 6.259364,-0.83603 0.001,-0.4125 0.6775,-0.75 1.5025,-0.75 1.06685,0 1.49969,-1.08286 1.49894,-3.75 -0.001,-3.99733 -4.33775,-22.921286 -6.298244,-27.483956 -1.3587,-3.162128 -3.62679,-4.452693 -3.44311,-1.959161 0.19856,2.695567 -5.08914,13.415261 -6.2603,12.691441 -0.57577,-0.35584 -0.94654,-0.27603 -0.82394,0.17735 0.38295,1.41624 -1.26176,5.32433 -2.24074,5.32433 -0.51293,0 -0.93261,0.93972 -0.93261,2.088256 0,1.14854 -1.28522,4.86497 -2.85604,8.25874 -1.57082,3.39377 -3.19775,7.24713 -3.6154,8.56302 -0.65694,2.06984 -0.50777,2.28728 1.10604,1.61222 1.02597,-0.42916 2.5404,-0.86236 3.3654,-0.96266 z M 115.02855,84.105694 c -1.33878,-1.755236 -2.43415,-3.67136 -2.43415,-4.258057 0,-0.586697 -0.71713,-1.066722 -1.59362,-1.066722 -0.87649,0 -1.82765,-0.894939 -2.11369,-1.988753 -0.28604,-1.093814 -0.91891,-1.742256 -1.40638,-1.440983 -1.52016,0.939509 -0.97561,5.948144 1.22147,11.234925 l 2.10779,5.07189 3.32636,-2.18049 3.32637,-2.18048 z"
     style="fill:#000000" />
</svg>
